<?xml version="1.0" encoding="UTF-8"?>
<svg width="24" height="24" viewBox="0 0 24 24" fill="none" xmlns="http://www.w3.org/2000/svg">
  <path d="M20 6.5C20 8.43 18.43 10 16.5 10C14.57 10 13 8.43 13 6.5C13 4.57 14.57 3 16.5 3C18.43 3 20 4.57 20 6.5Z" fill="currentColor"/>
  <path fill-rule="evenodd" clip-rule="evenodd" d="M4.176 19.843C3.428 19.095 3 18.08 3 17.02C3 15.96 3.428 14.945 4.176 14.197L12.697 5.676C13.097 5.276 13.73 5.276 14.13 5.676C14.53 6.076 14.53 6.709 14.13 7.109L5.61 15.63C5.236 16.004 5 16.498 5 17.02C5 17.542 5.236 18.036 5.61 18.41C5.984 18.784 6.478 19.02 7 19.02C7.522 19.02 8.016 18.784 8.39 18.41L16.91 9.89C17.31 9.49 17.943 9.49 18.343 9.89C18.743 10.29 18.743 10.923 18.343 11.323L9.823 19.843C9.075 20.591 8.06 21.019 7 21.019C5.94 21.019 4.925 20.591 4.176 19.843Z" fill="currentColor"/>
</svg> 